<?xml version="1.0" encoding="UTF-8"?>
<svg width="187px" height="40px" viewBox="0 0 187 40" version="1.1" xmlns="http://www.w3.org/2000/svg" xmlns:xlink="http://www.w3.org/1999/xlink">
    <!-- Generator: Sketch 53.2 (72643) - https://sketchapp.com -->
    <title>Logo / Light Logo</title>
    <desc>Created with Sketch.</desc>
    <g id="CMS-Process-2" stroke="none" stroke-width="1" fill="none" fill-rule="evenodd">
        <g id="Case-Studies" transform="translate(-165.000000, -24.000000)">
            <g id="Case-Studies-Hero">
                <g id="Menu" transform="translate(165.000000, 24.000000)">
                    <g id="Logo-/-Light-Logo">
                        <g id="Logo-DarkBG">
                            <g id="Group" fill="#FFFFFF" fill-rule="nonzero">
                                <path d="M84.6633338,6.05192349 C78.3131805,6.05192349 73.1502636,11.1474747 73.1502636,17.4059746 C73.1502636,23.6644745 78.3131805,28.7600258 84.6633338,28.7600258 C91.0134872,28.7600258 96.176404,23.6644745 96.176404,17.4059746 C96.176404,11.1474747 91.0134872,6.05192349 84.6633338,6.05192349 Z M75.7200059,17.4059746 C75.7200059,12.5323017 79.73474,8.56909521 84.6633338,8.56909521 C89.5919277,8.56909521 93.6066618,12.5323017 93.6066618,17.4059746 C93.6066618,22.2796475 89.5919277,26.2428541 84.6633338,26.2428541 C79.73474,26.2428541 75.7200059,22.2796475 75.7200059,17.4059746 Z" id="Shape"></path>
                                <polygon id="Path" points="186.929703 7.64332689 186.929703 6.38856652 181.157546 6.38856652 181.157546 0.0153019557 178.587804 0.0153019557 178.587804 6.38856652 172.823458 6.38856652 172.823458 7.64332689 172.823458 8.89808726 178.587804 8.89808726 178.587804 28.4310337 181.157546 28.4310337 181.157546 8.89808726 186.929703 8.89808726"></polygon>
                                <path d="M165.684417,7.48265635 C163.5677,5.96776273 160.482447,5.49340211 157.96738,6.02131958 C155.686636,6.49568021 153.304352,7.63567591 151.515687,9.28828713 L151.515687,6.38856652 L150.234721,6.38856652 L148.953755,6.38856652 L148.953755,28.4310337 L150.234721,28.4310337 L151.515687,28.4310337 L151.515687,12.0043843 C154.249455,8.30131098 159.615452,7.00064475 162.833488,8.69916183 C163.684861,9.15056953 164.426884,9.73969482 164.934584,10.5353965 C166.42644,12.8995487 166.028091,16.4343005 166.067145,20.037911 C166.074956,20.8183108 166.067145,28.4233828 166.067145,28.4233828 L168.66813,28.4233828 C168.66813,28.4233828 168.714995,15.562089 168.66813,14.4373952 C168.55878,11.8666667 167.941729,9.09701268 165.684417,7.48265635 Z" id="Path"></path>
                                <polygon id="Path" points="105.807079 39.5479046 106.244482 38.5762304 110.837213 28.4769396 120.874049 6.38091554 118.062173 6.38091554 109.439086 25.3629916 100.808189 6.38091554 98.0041235 6.38091554 108.033148 28.4539867 108.025337 28.4769396 105.564946 33.87853 102.995203 39.5479046"></polygon>
                                <path d="M138.448274,6.93943692 C138.323302,6.8782291 138.198329,6.81702128 138.073357,6.75581345 C135.316156,5.48575113 131.606042,5.56226091 128.200548,6.83997421 C127.169527,7.23017408 126.161938,7.72748764 125.216835,8.33191489 L125.599562,8.90573823 L126.552476,10.3211691 C128.692626,8.94399312 131.262368,8.20949925 133.574355,8.21715023 C133.699328,8.21715023 133.8243,8.2248012 133.949272,8.23245218 C134.050812,8.23245218 134.160163,8.23245218 134.261703,8.24010316 C135.378642,8.31661294 136.425285,8.57674619 137.29228,9.02815388 C137.300091,9.02815388 137.300091,9.02815388 137.300091,9.03580486 L137.300091,9.03580486 C137.331334,9.05110681 137.354766,9.06640877 137.38601,9.08171072 C138.924731,9.91566731 139.799536,11.2775414 139.986995,13.136729 C140.010427,13.3662583 140.026049,13.6034386 140.026049,13.8482699 C140.026049,14.184913 140.033859,14.521556 140.033859,14.858199 L139.487106,14.7893402 C138.987217,14.7281324 138.479517,14.6822265 137.979628,14.6363207 C135.956639,14.4603482 133.910218,14.4067913 131.879419,14.6286697 C129.926727,14.8428971 127.91936,15.2637008 126.263478,16.3577907 C125.544887,16.8321513 124.912215,17.4289276 124.435758,18.1404685 C124.099895,18.6454331 123.84214,19.2039544 123.670303,19.7777778 C123.170414,21.4686439 123.225089,23.5573608 124.123328,25.1181603 C125.974479,28.346873 130.0517,29.4027079 133.589977,28.7141199 C136.019125,28.2397593 138.424841,27.0615087 139.854212,25.0110466 C139.924509,24.9115839 139.986995,24.8197722 140.049481,24.7203095 L140.049481,24.7203095 C140.04167,26.8931872 140.026049,28.2856652 140.026049,28.4080808 L141.236718,28.4233828 L142.455197,28.4233828 L142.455197,13.840619 C142.431765,10.726671 141.010205,8.27835805 138.448274,6.93943692 Z M139.854212,18.9438212 C139.705807,20.9560284 139.135621,23.0447453 137.643765,24.5060821 C136.448717,25.6690307 134.886564,26.2428541 133.254114,26.4494305 C131.78569,26.7095637 130.239158,26.6713088 128.926949,26.1510423 C128.208359,25.906211 127.544443,25.5236622 126.99769,24.9268859 C125.396483,23.1901139 125.349618,20.1985816 127.247634,18.6377821 C127.669416,18.2858371 128.184926,18.0027509 128.747301,17.7732216 C128.981624,17.6737589 129.215947,17.5895981 129.465892,17.5130883 C130.590642,17.1611433 131.746636,16.9775199 132.91044,16.9086611 C134.527269,16.7938964 136.175341,16.8857081 137.792169,17.0157748 C138.268626,17.0540297 138.752894,17.0999355 139.22935,17.1534924 L139.869833,17.2300021 C139.893266,17.7808726 139.893266,18.3623469 139.854212,18.9438212 Z" id="Shape"></path>
                                <polygon id="Path" points="60.1609585 29.3491511 71.7677579 6.38091554 68.9090173 6.38091554 59.8641494 24.2612508 50.8192814 6.38091554 47.95273 6.38091554 59.5673402 29.3491511"></polygon>
                                <polygon id="Path" points="32.7000146 2.66666667 26.1600117 6.36468647 26.1600117 6.36468647 26.1600117 13.7302897 26.1600117 13.7302897 19.6200087 17.4207004 19.6200087 17.4207004 19.6200087 17.4207004 13.0721922 13.7302897 13.0721922 13.7302897 13.0721922 6.36468647 13.0721922 6.36468647 6.52437567 2.66666667 0 6.36468647 0 6.36468647 0 28.4538871 19.6121951 39.5479465 19.6121951 39.5555556 39.2243902 28.4538871 39.2243902 6.36468647"></polygon>
                            </g>
                            <g id="Group" transform="translate(0.000000, 2.666667)" fill-rule="nonzero">
                                <g fill="#93B50A" id="Path">
                                    <polygon opacity="0.4" points="26.1158018 33.1847881 26.1158018 33.1847881 26.1158018 25.8222222 19.5888009 29.5187171 19.5888009 36.873677 19.5888009 36.8812829"></polygon>
                                    <polygon points="32.6428027 29.4806873 32.6428027 29.4806873 32.6428027 22.1181214 32.6428027 14.7555556 26.1158018 18.4520504 26.1158018 25.8146163 26.1158018 33.1847881 26.1158018 33.1847881"></polygon>
                                    <polygon points="13.0540018 18.4596564 13.0540018 25.8146163 19.5888009 22.1181214 19.5888009 14.7555556"></polygon>
                                    <polygon points="26.1158018 18.4520504 26.1158018 25.8146163 19.5888009 22.1181214 19.5888009 14.7555556"></polygon>
                                    <polygon points="6.51920283 29.4806873 6.51920283 29.4806873 6.51920283 22.1181214 6.51920283 14.7555556 13.0540018 18.4596564 13.0540018 25.8146163 13.0540018 33.1847881 13.0540018 33.1847881"></polygon>
                                    <polygon opacity="0.85" points="32.6428027 7.40059565 32.6428027 14.7555556 32.6428027 22.1257274 32.6428027 29.4806873 39.1620055 25.7841924 39.1620055 18.4216266 39.1620055 11.0666667 39.1620055 3.7041008"></polygon>
                                    <g opacity="0.85" transform="translate(6.472414, 3.650859)">
                                        <polygon points="0.0467885371 3.74973654 0.0467885371 11.1046964 6.58158755 7.41580756 6.58158755 0.0532416953"></polygon>
                                    </g>
                                    <g opacity="0.6" transform="translate(26.045619, 0.000000)">
                                        <polygon points="0.0701828056 3.7041008 6.59718373 0.00760595647 13.1163866 3.7041008 6.59718373 7.40059565"></polygon>
                                    </g>
                                    <g opacity="0.6">
                                        <polygon points="13.0540018 3.7041008 6.51920283 0.00760595647 0.015596179 3.7041008 6.51920283 7.40059565"></polygon>
                                    </g>
                                    <g opacity="0.6" transform="translate(19.573205, 11.028637)">
                                        <polygon points="0.015596179 3.72691867 6.5425971 0.0380297824 13.069598 3.72691867 6.5425971 7.42341352"></polygon>
                                    </g>
                                    <g opacity="0.6" transform="translate(6.472414, 11.028637)">
                                        <polygon points="13.1163866 3.72691867 6.58158755 0.0380297824 0.0467885371 3.72691867 6.58158755 7.43101947"></polygon>
                                    </g>
                                    <g opacity="0.6" transform="translate(13.022809, 25.784192)">
                                        <polygon points="6.56599137 3.73452463 6.56599137 11.0894845 0.031192358 7.39298969 0.031192358 0.0380297824"></polygon>
                                    </g>
                                    <g opacity="0.35" transform="translate(13.022809, 22.057274)">
                                        <polygon points="0.031192358 3.76494845 6.56599137 0.0608476518 13.0929923 3.76494845 6.56599137 7.4614433"></polygon>
                                    </g>
                                </g>
                                <g fill="#598E30" id="Path">
                                    <g opacity="0.5" transform="translate(19.573205, 14.755556)">
                                        <polygon points="6.5425971 3.69649485 6.5425971 11.0590607 0.015596179 7.36256586 0.015596179 0"></polygon>
                                    </g>
                                    <polygon opacity="0.5" points="6.51920283 29.4806873 6.51920283 29.4806873 6.51920283 22.1181214 6.51920283 14.7555556 13.0540018 18.4596564 13.0540018 25.8146163 13.0540018 33.1847881 13.0540018 33.1847881"></polygon>
                                    <polygon points="32.6428027 7.40059565 32.6428027 14.7555556 26.1158018 11.0666667 26.1158018 3.7041008"></polygon>
                                    <polygon points="6.51920283 7.40059565 6.51920283 14.7555556 6.51920283 22.1257274 6.51920283 29.4806873 0.015596179 25.7841924 0.015596179 18.4216266 0.015596179 11.0666667 0.015596179 3.7041008"></polygon>
                                    <polygon opacity="0.6" points="32.6428027 7.40059565 32.6428027 14.7555556 32.6428027 22.1257274 32.6428027 29.4806873 39.1620055 25.7841924 39.1620055 18.4216266 39.1620055 11.0666667 39.1620055 3.7041008"></polygon>
                                    <g opacity="0.6" transform="translate(6.472414, 3.650859)">
                                        <polygon points="0.0467885371 3.74973654 0.0467885371 11.1046964 6.58158755 7.41580756 6.58158755 0.0532416953"></polygon>
                                    </g>
                                    <g opacity="0.3" transform="translate(26.045619, 0.000000)">
                                        <polygon points="0.0701828056 3.7041008 6.59718373 0.00760595647 13.1163866 3.7041008 6.59718373 7.40059565"></polygon>
                                    </g>
                                    <g opacity="0.3">
                                        <polygon points="13.0540018 3.7041008 6.51920283 0.00760595647 0.015596179 3.7041008 6.51920283 7.40059565"></polygon>
                                    </g>
                                    <polygon opacity="0.2" points="26.1158018 33.1847881 26.1158018 33.1847881 26.1158018 25.8222222 19.5888009 29.5187171 19.5888009 36.873677 19.5888009 36.8812829"></polygon>
                                    <g opacity="0.2" transform="translate(13.022809, 25.784192)">
                                        <polygon points="6.56599137 3.73452463 6.56599137 11.0894845 0.031192358 7.39298969 0.031192358 0.0380297824"></polygon>
                                    </g>
                                </g>
                            </g>
                        </g>
                    </g>
                </g>
            </g>
        </g>
    </g>
</svg>